<?xml version="1.0" encoding="utf-8"?>
<!-- Generator: Adobe Illustrator 26.4.1, SVG Export Plug-In . SVG Version: 6.00 Build 0)  -->
<svg version="1.1" id="Camada_1" xmlns="http://www.w3.org/2000/svg" xmlns:xlink="http://www.w3.org/1999/xlink" x="0px" y="0px"
	 viewBox="0 0 300 300" style="enable-background:new 0 0 300 300;" xml:space="preserve">
<style type="text/css">
	.st0{fill:#03A303;}
	.st1{fill:#666666;}
	.st2{fill:#B3B3B3;}
</style>
<path class="st0" d="M121.07,149.34c-0.14-0.32-0.31-0.8-0.4-1.4c-0.3-1.93,0.48-3.45,0.71-3.87c0.75-1.41,1.84-2.18,2.38-2.51
	c-0.4,0.27-1.86,1.33-2.45,3.38c-0.59,2.05,0.09,3.73,0.29,4.17c0.57-0.23,1.41-0.66,2.19-1.45c0.11-0.12,1.01-1.04,1.33-2.03
	c0.18-0.57,0.22-1.08,0.22-1.09l0,0c0.1-0.64,0.13-1.22,0.16-1.51c0.06-0.61,0.09-0.95,0.26-1.38c0.26-0.64,0.66-1.02,0.74-1.09
	c0.48-0.43,0.99-0.6,1.28-0.67c-0.6-0.16-1.59-0.34-2.77-0.16c-0.35,0.05-3.05,0.5-4.68,2.95c-1.24,1.86-1.83,4.81-0.5,6.37
	c0.21,0.25,0.44,0.42,0.6,0.52c0.24,0.55,0.92,1.89,2.46,2.9c1.58,1.03,3.14,1.1,3.73,1.1c-0.74-0.14-2.29-0.54-3.73-1.82
	C121.91,150.88,121.37,149.95,121.07,149.34z"/>
<path class="st0" d="M135.07,138.04c0.33,0.09,0.81,0.26,1.34,0.56c1.69,0.98,2.39,2.53,2.57,2.97c0.63,1.47,0.55,2.8,0.47,3.43
	c0.04-0.49,0.13-2.29-1.1-4.03c-1.23-1.74-2.97-2.26-3.44-2.39c-0.18,0.59-0.37,1.51-0.24,2.62c0.02,0.16,0.18,1.44,0.75,2.31
	c0.33,0.5,0.7,0.85,0.71,0.86l0,0c0.44,0.48,0.87,0.87,1.08,1.07c0.44,0.42,0.69,0.66,0.91,1.06c0.34,0.6,0.38,1.15,0.39,1.26
	c0.04,0.64-0.15,1.15-0.28,1.42c0.5-0.37,1.26-1.03,1.86-2.05c0.18-0.3,1.52-2.69,0.63-5.5c-0.67-2.13-2.6-4.44-4.65-4.38
	c-0.33,0.01-0.6,0.08-0.78,0.14c-0.58-0.15-2.05-0.46-3.8,0.1c-1.8,0.58-2.82,1.76-3.19,2.22c0.57-0.49,1.86-1.45,3.76-1.77
	C133.34,137.74,134.4,137.89,135.07,138.04z"/>
<path class="st0" d="M138.37,155.33c-0.24,0.25-0.61,0.6-1.13,0.92c-1.66,1.04-3.36,0.91-3.83,0.87c-1.59-0.14-2.73-0.83-3.25-1.2
	c0.41,0.26,1.96,1.19,4.07,0.92c2.12-0.27,3.39-1.55,3.72-1.91c-0.44-0.44-1.16-1.04-2.2-1.44c-0.15-0.06-1.36-0.52-2.39-0.42
	c-0.6,0.06-1.08,0.22-1.09,0.22l0,0c-0.63,0.16-1.17,0.36-1.45,0.45c-0.58,0.19-0.91,0.3-1.37,0.3c-0.69,0.01-1.2-0.21-1.3-0.25
	c-0.59-0.27-0.95-0.67-1.12-0.91c0.09,0.62,0.31,1.59,0.94,2.61c0.18,0.3,1.66,2.6,4.56,3.14c2.2,0.41,5.14-0.21,6.05-2.04
	c0.15-0.3,0.21-0.57,0.25-0.75c0.41-0.44,1.38-1.59,1.7-3.4c0.33-1.86-0.22-3.32-0.46-3.86c0.16,0.73,0.4,2.32-0.21,4.15
	C139.45,153.94,138.82,154.81,138.37,155.33z"/>
<g>
	<g>
		<path class="st1" d="M146.44,135.71h0.6l2.05,5.3l-0.11,0.12v-5.42h0.63v6.45h-0.61l-2.04-5.3l0.11-0.12v5.42h-0.63V135.71z"/>
		<path class="st2" d="M150.78,141.91c-0.2-0.21-0.3-0.54-0.3-0.97c0-0.52,0.12-0.9,0.35-1.16c0.24-0.26,0.59-0.38,1.07-0.38h0.82
			l0.06,0.46h-0.88c-0.28,0-0.49,0.09-0.63,0.27c-0.14,0.18-0.21,0.45-0.21,0.81c0,0.28,0.06,0.48,0.19,0.62
			c0.13,0.14,0.32,0.2,0.57,0.2c0.28,0,0.5-0.07,0.64-0.22s0.21-0.38,0.21-0.68l0.09,0.38c0,0.22-0.05,0.4-0.13,0.55
			c-0.08,0.15-0.2,0.26-0.36,0.33c-0.16,0.07-0.36,0.11-0.6,0.11C151.28,142.23,150.98,142.13,150.78,141.91z M152.68,138.79
			c0-0.25-0.07-0.44-0.21-0.58c-0.14-0.14-0.33-0.2-0.58-0.2c-0.22,0-0.39,0.07-0.52,0.2c-0.12,0.14-0.18,0.33-0.18,0.58h-0.62
			c0-0.42,0.12-0.74,0.35-0.97c0.23-0.23,0.56-0.34,0.99-0.34c0.29,0,0.53,0.05,0.74,0.16s0.36,0.25,0.47,0.45s0.16,0.43,0.16,0.71
			v3.37h-0.59V138.79z"/>
		<path class="st2" d="M153.9,137.56h1.99v0.59h-1.99V137.56z M154.63,141.88c-0.17-0.21-0.26-0.51-0.26-0.91v-4.75h0.64v4.76
			c0,0.2,0.04,0.35,0.13,0.46c0.09,0.11,0.22,0.16,0.39,0.16h0.35v0.59h-0.44C155.08,142.19,154.8,142.09,154.63,141.88z"/>
		<path class="st2" d="M157.28,140.94c0,0.22,0.06,0.39,0.19,0.52c0.13,0.12,0.31,0.18,0.54,0.18c0.24,0,0.42-0.06,0.54-0.18
			c0.12-0.12,0.18-0.3,0.18-0.54l0.06,0.6c-0.09,0.24-0.22,0.42-0.39,0.54c-0.17,0.12-0.38,0.18-0.63,0.18
			c-0.36,0-0.63-0.11-0.83-0.34c-0.2-0.23-0.29-0.55-0.29-0.96v-3.38h0.63V140.94z M158.73,137.56h0.63v4.61h-0.63V137.56z"/>
		<path class="st2" d="M160.34,137.56h0.64v4.61h-0.64V137.56z M162.43,138.07c0,0-0.01,0-0.02,0c-0.43,0-0.77,0.1-1.03,0.31
			c-0.25,0.21-0.39,0.49-0.41,0.87l-0.09-0.89c0.17-0.28,0.39-0.5,0.67-0.65s0.57-0.23,0.9-0.23v0.59
			C162.44,138.07,162.44,138.07,162.43,138.07z"/>
		<path class="st2" d="M163.74,142.05c-0.21-0.12-0.37-0.29-0.48-0.52c-0.11-0.23-0.17-0.51-0.17-0.83v-1.6
			c0-0.34,0.05-0.64,0.16-0.88s0.26-0.43,0.47-0.55c0.21-0.13,0.45-0.19,0.74-0.19c0.29,0,0.54,0.06,0.75,0.18
			c0.21,0.12,0.36,0.29,0.47,0.51c0.11,0.22,0.16,0.5,0.16,0.81v1.15h-2.36v-0.59h1.72V139c0-0.29-0.07-0.52-0.2-0.68
			c-0.13-0.16-0.31-0.24-0.55-0.24c-0.23,0-0.41,0.08-0.54,0.25c-0.13,0.17-0.19,0.41-0.19,0.73v1.66c0,0.29,0.07,0.52,0.2,0.68
			s0.32,0.24,0.56,0.24c0.23,0,0.41-0.06,0.53-0.19c0.13-0.13,0.19-0.31,0.19-0.54v-0.03h0.64v0.03c0,0.42-0.12,0.75-0.35,0.98
			c-0.24,0.23-0.57,0.35-1,0.35C164.2,142.23,163.95,142.17,163.74,142.05z"/>
		<path class="st2" d="M169.08,138.1l-1.73,3.45h1.85v0.62h-2.59v-0.56l1.78-3.43h-1.72v-0.62h2.41V138.1z"/>
		<path class="st2" d="M170.19,141.91c-0.2-0.21-0.3-0.54-0.3-0.97c0-0.52,0.12-0.9,0.35-1.16s0.59-0.38,1.07-0.38h0.82l0.06,0.46
			h-0.88c-0.28,0-0.49,0.09-0.63,0.27c-0.14,0.18-0.21,0.45-0.21,0.81c0,0.28,0.06,0.48,0.19,0.62c0.13,0.14,0.32,0.2,0.57,0.2
			c0.28,0,0.5-0.07,0.64-0.22s0.21-0.38,0.21-0.68l0.09,0.38c0,0.22-0.05,0.4-0.13,0.55c-0.08,0.15-0.2,0.26-0.36,0.33
			c-0.16,0.07-0.36,0.11-0.6,0.11C170.69,142.23,170.39,142.13,170.19,141.91z M172.09,138.79c0-0.25-0.07-0.44-0.21-0.58
			c-0.14-0.14-0.33-0.2-0.58-0.2c-0.22,0-0.39,0.07-0.52,0.2c-0.12,0.14-0.18,0.33-0.18,0.58h-0.62c0-0.42,0.12-0.74,0.35-0.97
			c0.23-0.23,0.56-0.34,0.99-0.34c0.29,0,0.53,0.05,0.74,0.16s0.36,0.25,0.47,0.45s0.16,0.43,0.16,0.71v3.37h-0.59V138.79z"/>
		<path class="st1" d="M146.44,146.62h0.64v6.45h-0.64V146.62z M146.91,149.98h1.38c0.13,0,0.24-0.03,0.34-0.09s0.17-0.14,0.22-0.25
			c0.05-0.11,0.07-0.25,0.07-0.4v-1.26c0-0.16-0.02-0.3-0.07-0.42c-0.05-0.11-0.12-0.2-0.21-0.26c-0.09-0.06-0.21-0.09-0.34-0.09
			h-1.38v-0.59h1.34c0.27,0,0.5,0.05,0.7,0.16c0.19,0.11,0.34,0.26,0.44,0.46c0.1,0.2,0.15,0.45,0.15,0.73v1.27
			c0,0.28-0.05,0.52-0.15,0.72c-0.1,0.2-0.25,0.35-0.44,0.45c-0.19,0.1-0.43,0.16-0.7,0.16h-1.34V149.98z"/>
		<path class="st2" d="M150.46,148.47h0.64v4.61h-0.64V148.47z M152.55,148.98c0,0-0.01,0-0.02,0c-0.43,0-0.77,0.1-1.03,0.31
			c-0.25,0.21-0.39,0.49-0.41,0.87l-0.09-0.89c0.17-0.28,0.39-0.5,0.67-0.65s0.57-0.23,0.9-0.23v0.59
			C152.56,148.98,152.56,148.98,152.55,148.98z"/>
		<path class="st2" d="M153.4,146.87h0.64v0.64h-0.64V146.87z M153.4,148.47h0.64v4.61h-0.64V148.47z"/>
		<path class="st2" d="M155.62,152.98c-0.2-0.11-0.35-0.26-0.45-0.46s-0.16-0.44-0.16-0.72v-2.09c0-0.28,0.05-0.52,0.16-0.71
			c0.1-0.2,0.25-0.35,0.45-0.45s0.44-0.16,0.71-0.16c0.28,0,0.52,0.05,0.71,0.16s0.35,0.25,0.45,0.45c0.1,0.2,0.16,0.43,0.16,0.71
			v2.11c0,0.28-0.05,0.52-0.16,0.72s-0.25,0.35-0.45,0.46s-0.44,0.16-0.71,0.16C156.06,153.14,155.82,153.09,155.62,152.98z
			 M156.84,152.35c0.12-0.13,0.18-0.31,0.18-0.54v-2.11c0-0.23-0.06-0.41-0.18-0.53c-0.12-0.13-0.29-0.19-0.51-0.19
			s-0.38,0.06-0.5,0.19c-0.12,0.13-0.18,0.3-0.18,0.53v2.11c0,0.23,0.06,0.41,0.18,0.54c0.12,0.13,0.29,0.19,0.5,0.19
			C156.55,152.55,156.72,152.48,156.84,152.35z"/>
		<path class="st2" d="M158.55,148.47h0.64v4.61h-0.64V148.47z M160.64,148.98c0,0-0.01,0-0.02,0c-0.43,0-0.77,0.1-1.03,0.31
			c-0.25,0.21-0.39,0.49-0.41,0.87l-0.09-0.89c0.17-0.28,0.39-0.5,0.67-0.65s0.57-0.23,0.9-0.23v0.59
			C160.65,148.98,160.65,148.98,160.64,148.98z"/>
		<path class="st2" d="M161.48,146.87h0.64v0.64h-0.64V146.87z M161.48,148.47h0.64v4.61h-0.64V148.47z"/>
		<path class="st2" d="M163.63,152.99c-0.17-0.11-0.3-0.27-0.39-0.48c-0.09-0.21-0.14-0.46-0.14-0.75v-1.95
			c0-0.3,0.04-0.56,0.14-0.77c0.09-0.21,0.22-0.38,0.39-0.49s0.38-0.17,0.62-0.17c0.22,0,0.43,0.07,0.62,0.21
			c0.19,0.14,0.34,0.34,0.46,0.6l-0.09,0.63c0-0.19-0.03-0.35-0.09-0.48s-0.14-0.23-0.25-0.3c-0.11-0.07-0.25-0.1-0.4-0.1
			c-0.24,0-0.42,0.08-0.55,0.23c-0.13,0.16-0.2,0.37-0.2,0.65v1.93c0,0.26,0.06,0.46,0.2,0.61c0.13,0.15,0.31,0.22,0.55,0.22
			c0.16,0,0.29-0.03,0.4-0.1c0.11-0.07,0.2-0.17,0.25-0.29s0.09-0.28,0.09-0.46l0.06,0.62c-0.09,0.25-0.22,0.45-0.4,0.59
			s-0.4,0.21-0.64,0.21C164.01,153.15,163.8,153.1,163.63,152.99z M165.23,146.62h0.64v6.45h-0.64V146.62z"/>
		<path class="st2" d="M167.08,152.82c-0.2-0.21-0.3-0.54-0.3-0.97c0-0.52,0.12-0.9,0.35-1.16s0.59-0.38,1.07-0.38h0.82l0.06,0.46
			h-0.88c-0.28,0-0.49,0.09-0.63,0.27c-0.14,0.18-0.21,0.45-0.21,0.81c0,0.28,0.06,0.48,0.19,0.62s0.32,0.2,0.57,0.2
			c0.28,0,0.5-0.07,0.64-0.22s0.21-0.38,0.21-0.68l0.09,0.38c0,0.22-0.05,0.4-0.13,0.55s-0.2,0.26-0.36,0.33
			c-0.16,0.07-0.36,0.11-0.6,0.11C167.59,153.14,167.29,153.03,167.08,152.82z M168.98,149.7c0-0.25-0.07-0.44-0.21-0.58
			c-0.14-0.14-0.33-0.2-0.58-0.2c-0.22,0-0.39,0.07-0.52,0.2c-0.12,0.14-0.18,0.33-0.18,0.58h-0.62c0-0.42,0.12-0.74,0.35-0.97
			c0.23-0.23,0.56-0.34,0.99-0.34c0.29,0,0.53,0.05,0.74,0.16s0.36,0.25,0.47,0.45s0.16,0.43,0.16,0.71v3.37h-0.59V149.7z"/>
		<path class="st2" d="M171,152.99c-0.17-0.11-0.3-0.27-0.39-0.48c-0.09-0.21-0.14-0.46-0.14-0.75v-1.95c0-0.3,0.04-0.56,0.14-0.77
			c0.09-0.21,0.22-0.38,0.39-0.49s0.38-0.17,0.62-0.17c0.22,0,0.43,0.07,0.62,0.21c0.19,0.14,0.34,0.34,0.46,0.6l-0.09,0.63
			c0-0.19-0.03-0.35-0.09-0.48s-0.14-0.23-0.25-0.3c-0.11-0.07-0.25-0.1-0.4-0.1c-0.24,0-0.42,0.08-0.55,0.23
			c-0.13,0.16-0.2,0.37-0.2,0.65v1.93c0,0.26,0.06,0.46,0.2,0.61c0.13,0.15,0.31,0.22,0.55,0.22c0.16,0,0.29-0.03,0.4-0.1
			c0.11-0.07,0.2-0.17,0.25-0.29s0.09-0.28,0.09-0.46l0.06,0.62c-0.09,0.25-0.22,0.45-0.4,0.59s-0.4,0.21-0.64,0.21
			C171.37,153.15,171.17,153.1,171,152.99z M172.6,146.62h0.64v6.45h-0.64V146.62z"/>
		<path class="st2" d="M174.77,152.96c-0.21-0.12-0.37-0.29-0.48-0.52c-0.11-0.23-0.17-0.51-0.17-0.83v-1.6
			c0-0.34,0.05-0.64,0.16-0.88s0.26-0.43,0.47-0.55c0.21-0.13,0.45-0.19,0.74-0.19c0.29,0,0.54,0.06,0.75,0.18
			c0.21,0.12,0.36,0.29,0.47,0.51c0.11,0.22,0.16,0.5,0.16,0.81v1.15h-2.36v-0.59h1.72v-0.53c0-0.29-0.07-0.52-0.2-0.68
			c-0.13-0.16-0.31-0.24-0.55-0.24c-0.23,0-0.41,0.08-0.54,0.25c-0.13,0.17-0.19,0.41-0.19,0.73v1.66c0,0.29,0.07,0.52,0.2,0.68
			s0.32,0.24,0.56,0.24c0.23,0,0.41-0.06,0.53-0.19c0.13-0.13,0.19-0.31,0.19-0.54v-0.03h0.64v0.03c0,0.42-0.12,0.75-0.35,0.98
			c-0.24,0.23-0.57,0.35-1,0.35C175.23,153.14,174.98,153.08,174.77,152.96z"/>
		<path class="st1" d="M146.44,157.52h0.64v6.46h-0.64V157.52z M146.84,160.66h1.19c0.19,0,0.36-0.04,0.49-0.11
			c0.14-0.07,0.24-0.18,0.32-0.31s0.11-0.3,0.11-0.5v-0.67c0-0.2-0.04-0.37-0.11-0.52s-0.18-0.25-0.32-0.33
			c-0.14-0.08-0.3-0.11-0.49-0.11h-1.19v-0.59h1.15c0.34,0,0.63,0.06,0.87,0.17c0.24,0.11,0.42,0.28,0.55,0.5
			c0.13,0.22,0.19,0.49,0.19,0.79v0.75c0,0.32-0.06,0.59-0.19,0.81c-0.13,0.23-0.31,0.4-0.55,0.52c-0.24,0.12-0.53,0.18-0.87,0.18
			h-1.15V160.66z M148.18,161.05l0.57-0.2l1.03,3.13h-0.74L148.18,161.05z"/>
		<path class="st2" d="M151.15,163.87c-0.21-0.12-0.37-0.29-0.48-0.52c-0.11-0.23-0.17-0.51-0.17-0.83v-1.6
			c0-0.34,0.05-0.64,0.16-0.88s0.26-0.43,0.47-0.55c0.21-0.13,0.45-0.19,0.74-0.19c0.29,0,0.54,0.06,0.75,0.18
			c0.21,0.12,0.36,0.29,0.47,0.51c0.11,0.22,0.16,0.5,0.16,0.81v1.14h-2.36v-0.59h1.72v-0.53c0-0.29-0.07-0.52-0.2-0.68
			s-0.31-0.24-0.55-0.24c-0.23,0-0.41,0.09-0.54,0.26s-0.19,0.41-0.19,0.73v1.66c0,0.29,0.07,0.52,0.2,0.68
			c0.13,0.16,0.32,0.24,0.56,0.24c0.23,0,0.41-0.06,0.53-0.19c0.13-0.13,0.19-0.31,0.19-0.54v-0.03h0.64v0.03
			c0,0.42-0.12,0.75-0.35,0.98c-0.24,0.23-0.57,0.35-1,0.35C151.61,164.05,151.36,163.99,151.15,163.87z"/>
		<path class="st2" d="M154.15,159.38h0.64v4.61h-0.64V159.38z M156.33,160.73c0-0.28-0.06-0.49-0.19-0.63
			c-0.13-0.14-0.32-0.21-0.58-0.21c-0.26,0-0.45,0.08-0.58,0.23c-0.13,0.15-0.19,0.39-0.19,0.7l-0.09-0.67
			c0.11-0.29,0.25-0.5,0.43-0.64c0.18-0.14,0.4-0.21,0.66-0.21c0.39,0,0.69,0.12,0.88,0.36c0.19,0.24,0.29,0.6,0.29,1.08v3.25h-0.64
			V160.73z"/>
		<path class="st2" d="M158.46,163.89c-0.2-0.11-0.35-0.26-0.45-0.46s-0.16-0.44-0.16-0.72v-2.1c0-0.28,0.05-0.52,0.16-0.71
			c0.1-0.2,0.25-0.35,0.45-0.45c0.2-0.1,0.44-0.16,0.71-0.16c0.28,0,0.52,0.05,0.71,0.16c0.2,0.1,0.35,0.25,0.45,0.45
			c0.1,0.2,0.16,0.43,0.16,0.71v2.11c0,0.28-0.05,0.52-0.16,0.72c-0.1,0.2-0.25,0.35-0.45,0.46s-0.44,0.16-0.71,0.16
			C158.9,164.05,158.66,164,158.46,163.89z M159.68,163.26c0.12-0.13,0.18-0.31,0.18-0.54v-2.11c0-0.23-0.06-0.41-0.18-0.53
			s-0.29-0.19-0.51-0.19s-0.38,0.06-0.5,0.19c-0.12,0.13-0.18,0.3-0.18,0.53v2.11c0,0.23,0.06,0.41,0.18,0.54
			c0.12,0.13,0.29,0.19,0.5,0.19C159.39,163.45,159.56,163.39,159.68,163.26z"/>
		<path class="st2" d="M163.59,159.38h0.66l-1.28,4.61h-0.59l-1.29-4.61h0.66l0.93,3.69L163.59,159.38z"/>
		<path class="st2" d="M165.15,163.73c-0.2-0.21-0.3-0.54-0.3-0.97c0-0.52,0.12-0.91,0.35-1.16s0.59-0.38,1.07-0.38h0.82l0.06,0.46
			h-0.88c-0.28,0-0.49,0.09-0.63,0.27c-0.14,0.18-0.21,0.45-0.21,0.81c0,0.27,0.06,0.48,0.19,0.62c0.13,0.14,0.32,0.2,0.57,0.2
			c0.28,0,0.5-0.07,0.64-0.22s0.21-0.38,0.21-0.68l0.09,0.38c0,0.22-0.05,0.4-0.13,0.55c-0.08,0.15-0.2,0.26-0.36,0.33
			c-0.16,0.07-0.36,0.11-0.6,0.11C165.65,164.05,165.35,163.94,165.15,163.73z M167.05,160.61c0-0.25-0.07-0.44-0.21-0.58
			c-0.14-0.14-0.33-0.2-0.58-0.2c-0.22,0-0.39,0.07-0.52,0.2c-0.12,0.14-0.18,0.33-0.18,0.58h-0.62c0-0.42,0.12-0.74,0.35-0.97
			c0.23-0.23,0.56-0.34,0.99-0.34c0.29,0,0.53,0.05,0.74,0.16c0.2,0.1,0.36,0.25,0.47,0.45s0.16,0.43,0.16,0.71v3.37h-0.59V160.61z"
			/>
		<path class="st2" d="M169.06,163.9c-0.17-0.11-0.3-0.27-0.39-0.47c-0.09-0.21-0.14-0.46-0.14-0.75v-1.95
			c0-0.3,0.04-0.56,0.14-0.77c0.09-0.21,0.22-0.38,0.39-0.49s0.38-0.17,0.62-0.17c0.22,0,0.43,0.07,0.62,0.21
			c0.19,0.14,0.34,0.34,0.46,0.6l-0.09,0.63c0-0.19-0.03-0.35-0.09-0.48s-0.14-0.23-0.25-0.3s-0.25-0.1-0.4-0.1
			c-0.24,0-0.42,0.08-0.55,0.23c-0.13,0.16-0.2,0.37-0.2,0.65v1.94c0,0.26,0.06,0.46,0.2,0.61c0.13,0.15,0.31,0.22,0.55,0.22
			c0.16,0,0.29-0.03,0.4-0.1c0.11-0.07,0.2-0.17,0.25-0.3c0.06-0.13,0.09-0.28,0.09-0.46l0.06,0.62c-0.09,0.25-0.22,0.45-0.4,0.59
			s-0.4,0.21-0.64,0.21C169.44,164.06,169.23,164.01,169.06,163.9z M170.66,157.53h0.64v6.45h-0.64V157.53z"/>
		<path class="st2" d="M172.51,163.73c-0.2-0.21-0.3-0.54-0.3-0.97c0-0.52,0.12-0.91,0.35-1.16s0.59-0.38,1.07-0.38h0.82l0.06,0.46
			h-0.88c-0.28,0-0.49,0.09-0.63,0.27c-0.14,0.18-0.21,0.45-0.21,0.81c0,0.27,0.06,0.48,0.19,0.62c0.13,0.14,0.32,0.2,0.57,0.2
			c0.28,0,0.5-0.07,0.64-0.22s0.21-0.38,0.21-0.68l0.09,0.38c0,0.22-0.05,0.4-0.13,0.55c-0.08,0.15-0.2,0.26-0.36,0.33
			c-0.16,0.07-0.36,0.11-0.6,0.11C173.02,164.05,172.71,163.94,172.51,163.73z M174.41,160.61c0-0.25-0.07-0.44-0.21-0.58
			c-0.14-0.14-0.33-0.2-0.58-0.2c-0.22,0-0.39,0.07-0.52,0.2c-0.12,0.14-0.18,0.33-0.18,0.58h-0.62c0-0.42,0.12-0.74,0.35-0.97
			c0.23-0.23,0.56-0.34,0.99-0.34c0.29,0,0.53,0.05,0.74,0.16c0.2,0.1,0.36,0.25,0.47,0.45s0.16,0.43,0.16,0.71v3.37h-0.59V160.61z"
			/>
	</g>
</g>
</svg>
